<svg version="1.1" id="Layer_1" xmlns="http://www.w3.org/2000/svg" xmlns:xlink="http://www.w3.org/1999/xlink" x="0px" y="0px"
	 width="100%" viewBox="0 0 345 343" enable-background="new 0 0 345 343" xml:space="preserve">
<path fill="#FFFFFF" opacity="1.000000" stroke="none" 
	d="
M1.000000,123.000000 
	C1.000000,82.386818 1.000000,41.773640 1.000000,1.000000 
	C71.020813,1.000000 141.041748,1.000000 211.400131,1.340967 
	C204.820923,3.691489 202.946121,6.290178 203.000000,13.793310 
	C203.048386,20.530603 207.628708,24.996330 214.494049,24.999794 
	C221.155640,25.003155 225.791580,20.256800 226.052048,13.697351 
	C226.319031,6.973701 222.701080,3.316893 217.000000,1.000000 
	C259.925537,1.000000 302.851044,1.000000 346.000000,1.000000 
	C346.000000,42.020622 346.000000,83.041656 345.664124,124.406631 
	C343.978577,122.770485 343.003967,120.305603 341.201355,118.910934 
	C337.415344,115.981705 333.213501,115.200684 328.585815,117.760468 
	C324.469299,120.037491 321.974884,123.229416 322.084778,127.835388 
	C322.197296,132.548798 323.706879,136.674347 328.599945,138.902924 
	C335.670288,142.123169 341.821045,139.445053 346.000000,131.000000 
	C346.000000,157.020889 346.000000,183.041794 345.664307,209.406876 
	C343.528564,204.207504 337.558289,200.102676 332.745972,201.099976 
	C326.161469,202.464554 321.247009,208.513260 322.010498,214.313187 
	C322.842499,220.633438 327.973206,224.965424 334.345184,225.032776 
	C340.210754,225.094757 343.409302,221.551956 346.000000,217.000000 
	C346.000000,259.260864 346.000000,301.521759 346.000000,344.000000 
	C303.312683,344.000000 260.625000,344.000000 217.599869,343.659027 
	C224.395645,341.246582 226.260422,338.451996 225.999725,330.224030 
	C225.839478,325.166016 221.837219,320.858002 216.523209,320.023499 
	C211.083771,319.169281 205.607132,322.231537 203.936005,327.061646 
	C201.119476,335.202362 203.819473,340.247925 213.000000,344.000000 
	C142.424881,344.000000 71.849777,344.000000 1.000000,344.000000 
	C1.000000,302.312836 1.000000,260.625092 1.329818,218.582748 
	C2.644632,219.514160 3.489517,220.944519 4.639429,222.060577 
	C9.089208,226.379379 17.583767,225.952118 21.284422,221.157410 
	C25.732475,215.394318 24.598595,207.175461 19.263529,203.480560 
	C13.837636,199.722748 6.344461,200.348923 1.000000,208.000000 
	C1.000000,183.312439 1.000000,158.624878 1.329825,133.582764 
	C2.648502,134.517639 3.495147,135.954285 4.651038,137.070801 
	C9.427114,141.684143 17.533001,140.901230 21.982250,135.489609 
	C25.921066,130.698837 24.455807,122.318810 19.287609,118.632050 
	C14.031074,114.882271 5.987418,115.470543 1.000000,123.000000 
M155.496796,82.995682 
	C147.782944,75.021889 138.705460,72.162361 127.525780,73.838135 
	C109.929756,76.475685 98.961090,94.971275 102.638466,111.500389 
	C104.052994,117.858444 106.709686,125.044556 100.932602,130.639221 
	C98.064835,133.416443 94.171066,135.467316 90.382164,136.889725 
	C82.896622,139.699921 76.466316,143.595428 71.430046,149.977264 
	C60.327065,164.046661 63.699818,187.516678 78.825691,197.235077 
	C83.822739,200.445709 89.511772,202.676056 95.067505,204.896500 
	C102.408554,207.830505 105.085869,212.676849 104.144135,220.320892 
	C103.276047,227.367126 102.235764,234.687653 103.228539,241.606522 
	C105.336998,256.300659 118.412231,267.400116 133.538651,268.100189 
	C145.724594,268.664185 154.927124,263.171936 163.207855,255.255966 
	C168.343018,250.347000 176.292709,249.320068 182.615723,254.902618 
	C187.309235,259.046509 192.607910,262.887939 198.272934,265.467651 
	C209.589294,270.620819 220.984024,269.042389 230.684296,261.581299 
	C241.694153,253.112915 245.934204,241.469559 243.278458,227.530731 
	C242.087875,221.281906 240.376740,214.388107 246.012833,209.637070 
	C250.299377,206.023666 255.514297,202.885330 260.842468,201.242188 
	C283.981659,194.106400 286.183899,162.898453 273.413361,148.697617 
	C267.100433,141.677628 259.082642,138.721725 250.647491,135.989639 
	C243.965179,133.825302 240.198105,127.592911 240.961639,120.546745 
	C241.722412,113.526169 243.132614,106.454788 242.836182,99.465996 
	C242.215729,84.838600 229.166763,73.663643 214.239822,73.094803 
	C202.142197,72.633766 192.845047,78.371773 185.985504,88.139648 
	C180.018982,96.635826 167.820267,97.730927 161.751755,90.252922 
	C159.888824,87.957306 157.920425,85.747284 155.496796,82.995682 
M170.886780,271.060150 
	C170.298737,271.349487 169.733078,271.826721 169.119278,271.899902 
	C160.676971,272.905914 155.301117,280.228851 154.078629,287.882721 
	C152.735672,296.290771 157.195389,303.794098 165.342896,307.716522 
	C171.086533,310.481659 181.411972,309.593872 186.782715,303.694427 
	C192.401154,297.522888 193.866730,290.110138 190.670700,282.710938 
	C187.279617,274.860107 180.399109,271.110138 170.886780,271.060150 
M79.405586,96.934891 
	C77.851791,96.058990 76.369911,95.007805 74.732384,94.335999 
	C65.013458,90.348686 52.915165,95.314987 49.556614,105.031387 
	C45.753815,116.033020 50.702751,126.583572 61.911503,130.370178 
	C70.191315,133.167313 79.410965,129.249039 84.196800,121.257256 
	C88.265076,114.463707 86.412819,104.062828 79.405586,96.934891 
M191.705811,49.237171 
	C187.699432,35.747566 175.866165,31.706928 165.555923,35.900280 
	C156.074417,39.756573 151.336533,50.790230 155.198914,60.301792 
	C159.766830,71.550789 168.715027,73.647736 178.897034,71.438118 
	C186.080368,69.879257 193.161789,62.484207 191.705811,49.237171 
M80.415764,247.057190 
	C82.128937,244.684662 84.296021,242.516342 85.472115,239.902191 
	C89.351463,231.279282 85.714035,220.457855 77.750397,215.945053 
	C69.006592,210.990158 57.884617,213.259369 52.397892,221.117691 
	C47.032265,228.802597 47.917240,240.299530 54.849983,246.245071 
	C62.683350,252.962982 71.244186,252.626007 80.415764,247.057190 
M295.105408,244.481369 
	C299.418457,238.776138 299.153748,232.220810 296.900787,226.251144 
	C293.201141,216.448135 282.034363,212.323822 271.854279,216.083176 
	C263.368591,219.216827 258.619995,230.414627 261.579193,240.101990 
	C263.898407,247.694214 269.577698,251.549759 276.821136,252.766266 
	C284.128845,253.993576 290.256409,250.990036 295.105408,244.481369 
M269.824677,128.968918 
	C277.540344,132.573761 284.695862,131.592407 291.245605,126.238968 
	C297.926575,120.778252 298.096954,113.360489 296.337372,105.991020 
	C294.352478,97.678047 286.546478,92.751732 277.379120,93.000275 
	C269.602295,93.211121 261.852936,99.098480 260.238220,106.607529 
	C258.171448,116.218796 260.511780,123.614311 269.824677,128.968918 
M331.039978,182.438187 
	C331.915619,180.889069 332.949799,179.407227 333.640533,177.779633 
	C337.399139,168.922913 332.377930,159.939713 325.106689,157.112366 
	C315.958466,153.555161 307.082764,157.998428 303.879028,167.018188 
	C301.073456,174.916916 305.012024,181.819519 309.160461,184.426849 
	C316.392975,188.972504 322.224457,189.486603 331.039978,182.438187 
M42.999958,174.203964 
	C42.999973,173.372925 43.000282,172.541901 42.999958,171.710861 
	C42.996696,163.425568 39.171616,158.110001 31.525484,156.261719 
	C25.545025,154.816071 17.326969,157.124100 13.816370,163.742386 
	C10.705742,169.606613 11.262091,175.543961 14.607582,180.946976 
	C17.978897,186.391708 25.677402,188.616623 32.843769,186.963318 
	C37.593575,185.867508 42.085930,180.611832 42.999958,174.203964 
M105.913826,309.960754 
	C108.903198,308.101593 112.719040,306.873444 114.716660,304.257050 
	C119.450302,298.057220 119.320236,291.057373 114.814537,284.653381 
	C110.983139,279.207733 105.140312,278.348114 98.932281,279.003082 
	C91.629311,279.773560 84.777985,289.349762 86.428421,297.156464 
	C88.040871,304.783539 95.299332,311.509216 105.913826,309.960754 
M256.119110,305.441986 
	C257.044128,302.546112 258.857422,299.605408 258.714111,296.763428 
	C258.389282,290.322388 254.993881,284.834473 248.925827,282.742310 
	C243.190994,280.765015 236.878708,280.919006 231.872635,285.641846 
	C226.978622,290.258972 226.041214,295.903351 227.685593,302.240356 
	C229.249847,308.268585 233.469650,311.805328 239.140778,312.812561 
	C245.768127,313.989655 251.898407,312.313904 256.119110,305.441986 
M254.489914,35.993217 
	C246.618286,29.498486 237.585434,30.220839 230.586838,37.904697 
	C226.172928,42.750782 226.961990,53.381409 232.124313,58.618263 
	C237.903091,64.480484 248.145859,64.843552 254.320129,59.093922 
	C260.427338,53.406715 260.854309,42.774303 254.489914,35.993217 
M115.635658,39.152374 
	C112.011795,34.927010 107.708496,32.539906 101.847252,32.925690 
	C95.476540,33.344997 90.303841,36.496189 88.027710,42.128635 
	C85.626999,48.069366 87.068665,55.646656 91.409874,59.905041 
	C95.618393,64.033279 102.826767,65.177353 108.335098,63.279045 
	C116.978157,60.300438 121.098190,49.359505 115.635658,39.152374 
M55.669346,298.000000 
	C65.705101,298.523590 68.699707,292.044556 68.910118,286.405670 
	C69.182335,279.110443 63.925877,274.846008 55.622311,275.000031 
	C49.778316,275.108429 45.380421,279.476562 45.001549,285.548889 
	C44.599678,291.989838 48.450333,296.870880 55.669346,298.000000 
M137.972198,321.438232 
	C133.465088,317.795624 128.323853,318.213135 124.524231,321.509094 
	C121.767410,323.900513 119.339745,328.384399 119.392815,331.895569 
	C119.470032,337.004181 122.845520,341.270477 128.436111,342.763428 
	C132.832748,343.937500 138.829559,341.680359 140.992783,338.040222 
	C144.566986,332.025787 143.876328,327.397522 137.972198,321.438232 
M67.653114,63.823002 
	C70.436058,53.833141 64.727272,45.135380 55.991753,46.056068 
	C50.686226,46.615246 45.563313,51.727024 45.005241,57.018696 
	C44.417824,62.588661 47.647385,67.597282 53.112965,69.592690 
	C58.130695,71.424591 63.884491,69.276421 67.653114,63.823002 
M142.953674,16.008963 
	C142.967575,14.683534 143.217300,13.308911 142.952927,12.041530 
	C142.007126,7.507408 139.812561,3.697397 135.199066,2.176131 
	C130.541870,0.640453 124.547478,2.841683 121.926353,6.131252 
	C118.303459,10.678066 118.413811,15.291060 121.034683,20.114685 
	C123.797028,25.198696 128.564651,25.403563 133.473465,24.977604 
	C138.519363,24.539749 141.106369,21.193724 142.953674,16.008963 
M283.993439,281.038513 
	C278.926453,283.913208 277.132385,288.405487 278.056458,293.930450 
	C278.722961,297.915588 280.487274,301.494263 284.696503,302.812927 
	C289.550171,304.333496 294.386139,304.129211 298.141907,300.248322 
	C301.513977,296.763855 302.051086,288.637482 299.564667,285.092072 
	C296.191681,280.282501 290.902527,278.809540 283.993439,281.038513 
M278.000427,50.865986 
	C278.613831,54.010578 278.447876,57.628605 280.008514,60.197826 
	C282.947174,65.035576 288.932770,66.276810 293.842407,64.050842 
	C299.202515,61.620644 302.028198,56.213650 300.973816,50.404861 
	C300.142151,45.823044 294.746094,41.254459 289.871704,41.005226 
	C284.483917,40.729744 279.875519,44.227551 278.000427,50.865986 
z"/>
<path fill="#D11872" opacity="1.000000" stroke="none" 
	d="
M346.000000,130.571533 
	C341.821045,139.445053 335.670288,142.123169 328.599945,138.902924 
	C323.706879,136.674347 322.197296,132.548798 322.084778,127.835388 
	C321.974884,123.229416 324.469299,120.037491 328.585815,117.760468 
	C333.213501,115.200684 337.415344,115.981705 341.201355,118.910934 
	C343.003967,120.305603 343.978577,122.770485 345.664124,124.875290 
	C346.000000,126.714355 346.000000,128.428711 346.000000,130.571533 
z"/>
<path fill="#D11872" opacity="1.000000" stroke="none" 
	d="
M346.000000,216.562500 
	C343.409302,221.551956 340.210754,225.094757 334.345184,225.032776 
	C327.973206,224.965424 322.842499,220.633438 322.010498,214.313187 
	C321.247009,208.513260 326.161469,202.464554 332.745972,201.099976 
	C337.558289,200.102676 343.528564,204.207504 345.664307,209.875534 
	C346.000000,212.041672 346.000000,214.083328 346.000000,216.562500 
z"/>
<path fill="#D11872" opacity="1.000000" stroke="none" 
	d="
M216.583344,1.000000 
	C222.701080,3.316893 226.319031,6.973701 226.052048,13.697351 
	C225.791580,20.256800 221.155640,25.003155 214.494049,24.999794 
	C207.628708,24.996330 203.048386,20.530603 203.000000,13.793310 
	C202.946121,6.290178 204.820923,3.691489 211.868790,1.340967 
	C213.388885,1.000000 214.777786,1.000000 216.583344,1.000000 
z"/>
<path fill="#D11872" opacity="1.000000" stroke="none" 
	d="
M1.000000,123.454109 
	C5.987418,115.470543 14.031074,114.882271 19.287609,118.632050 
	C24.455807,122.318810 25.921066,130.698837 21.982250,135.489609 
	C17.533001,140.901230 9.427114,141.684143 4.651038,137.070801 
	C3.495147,135.954285 2.648502,134.517639 1.329825,133.114105 
	C1.000000,129.969406 1.000000,126.938812 1.000000,123.454109 
z"/>
<path fill="#D11872" opacity="1.000000" stroke="none" 
	d="
M1.000000,208.454102 
	C6.344461,200.348923 13.837636,199.722748 19.263529,203.480560 
	C24.598595,207.175461 25.732475,215.394318 21.284422,221.157410 
	C17.583767,225.952118 9.089208,226.379379 4.639429,222.060577 
	C3.489517,220.944519 2.644632,219.514160 1.329818,218.114090 
	C1.000000,214.969406 1.000000,211.938812 1.000000,208.454102 
z"/>
<path fill="#D11872" opacity="1.000000" stroke="none" 
	d="
M213.399994,344.000000 
	C203.819473,340.247925 201.119476,335.202362 203.936005,327.061646 
	C205.607132,322.231537 211.083771,319.169281 216.523209,320.023499 
	C221.837219,320.858002 225.839478,325.166016 225.999725,330.224030 
	C226.260422,338.451996 224.395645,341.246582 217.131210,343.659027 
	C215.933334,344.000000 214.866653,344.000000 213.399994,344.000000 
z"/>
<path fill="#D11972" opacity="1.000000" stroke="none" 
	d="
M155.748566,83.246872 
	C157.920425,85.747284 159.888824,87.957306 161.751755,90.252922 
	C167.820267,97.730927 180.018982,96.635826 185.985504,88.139648 
	C192.845047,78.371773 202.142197,72.633766 214.239822,73.094803 
	C229.166763,73.663643 242.215729,84.838600 242.836182,99.465996 
	C243.132614,106.454788 241.722412,113.526169 240.961639,120.546745 
	C240.198105,127.592911 243.965179,133.825302 250.647491,135.989639 
	C259.082642,138.721725 267.100433,141.677628 273.413361,148.697617 
	C286.183899,162.898453 283.981659,194.106400 260.842468,201.242188 
	C255.514297,202.885330 250.299377,206.023666 246.012833,209.637070 
	C240.376740,214.388107 242.087875,221.281906 243.278458,227.530731 
	C245.934204,241.469559 241.694153,253.112915 230.684296,261.581299 
	C220.984024,269.042389 209.589294,270.620819 198.272934,265.467651 
	C192.607910,262.887939 187.309235,259.046509 182.615723,254.902618 
	C176.292709,249.320068 168.343018,250.347000 163.207855,255.255966 
	C154.927124,263.171936 145.724594,268.664185 133.538651,268.100189 
	C118.412231,267.400116 105.336998,256.300659 103.228539,241.606522 
	C102.235764,234.687653 103.276047,227.367126 104.144135,220.320892 
	C105.085869,212.676849 102.408554,207.830505 95.067505,204.896500 
	C89.511772,202.676056 83.822739,200.445709 78.825691,197.235077 
	C63.699818,187.516678 60.327065,164.046661 71.430046,149.977264 
	C76.466316,143.595428 82.896622,139.699921 90.382164,136.889725 
	C94.171066,135.467316 98.064835,133.416443 100.932602,130.639221 
	C106.709686,125.044556 104.052994,117.858444 102.638466,111.500389 
	C98.961090,94.971275 109.929756,76.475685 127.525780,73.838135 
	C138.705460,72.162361 147.782944,75.021889 155.748566,83.246872 
M190.361206,162.317993 
	C192.350723,161.054993 194.855484,160.201370 196.240601,158.458130 
	C202.244003,150.902466 207.934937,143.097839 213.711243,135.362640 
	C218.352448,129.147507 222.953079,122.902092 228.177505,115.852654 
	C225.054718,115.852654 222.914139,116.133476 220.873917,115.800125 
	C214.694626,114.790482 210.832703,117.280464 207.402878,122.486137 
	C202.346603,130.160385 196.354843,137.218262 190.761520,144.538666 
	C190.392273,144.424576 190.023041,144.310486 189.653809,144.196396 
	C189.653809,134.846664 189.653809,125.496941 189.653809,116.230072 
	C184.748627,116.230072 180.509338,116.230072 176.225479,116.230072 
	C176.225479,139.813889 176.225479,163.018372 176.225479,186.709976 
	C179.722427,186.709976 182.860779,186.574249 185.981888,186.748047 
	C189.122177,186.922913 189.968414,185.504822 189.913116,182.577087 
	C189.790558,176.087357 189.941315,169.592468 190.361206,162.317993 
M147.914612,210.163284 
	C152.326218,210.949707 156.737823,211.736145 161.582794,212.599823 
	C161.582794,188.080627 161.582794,164.897156 161.582794,141.523499 
	C156.925980,141.523499 152.561554,141.523499 147.858490,141.523499 
	C147.858490,164.352417 147.858490,186.789001 147.914612,210.163284 
M120.716957,209.499985 
	C120.716957,218.896011 120.716957,228.292053 120.716957,237.658600 
	C125.683357,237.658600 129.763062,237.658600 133.935135,237.658600 
	C133.935135,214.108093 133.935135,190.899429 133.935135,167.434601 
	C129.514267,167.434601 125.441910,167.434601 120.716461,167.434601 
	C120.716461,181.309906 120.716461,194.904938 120.716957,209.499985 
M212.571762,164.911545 
	C209.697098,161.095200 206.822418,157.278854 203.697327,153.130066 
	C201.613144,155.868286 199.980652,158.358231 197.998169,160.528458 
	C195.636169,163.114136 195.840378,165.107971 198.086472,167.787018 
	C202.342392,172.863327 206.102844,178.352097 210.246719,183.527298 
	C211.305359,184.849411 212.959244,186.392731 214.459885,186.531174 
	C218.816971,186.933136 223.235077,186.673630 228.896072,186.673630 
	C223.069534,178.905350 218.035370,172.193512 212.571762,164.911545 
M190.842850,210.118591 
	C190.842850,206.556503 190.842850,202.994400 190.842850,199.545563 
	C181.557022,199.545563 173.058395,199.545563 164.677383,199.545563 
	C164.677383,203.864792 164.677383,207.736710 164.677383,212.318436 
	C173.631058,211.862976 182.128448,211.430725 190.842850,210.118591 
M137.176270,226.894836 
	C137.176270,230.472366 137.176270,234.049881 137.176270,237.611877 
	C146.349731,237.611877 154.845718,237.611877 163.712799,237.611877 
	C163.712799,234.261063 163.917557,231.283264 163.609085,228.359634 
	C163.490524,227.236038 162.196732,225.315979 161.448547,225.320831 
	C153.428024,225.372711 145.409515,225.737640 137.176270,226.894836 
z"/>
<path fill="#D11872" opacity="1.000000" stroke="none" 
	d="
M171.309570,271.034485 
	C180.399109,271.110138 187.279617,274.860107 190.670700,282.710938 
	C193.866730,290.110138 192.401154,297.522888 186.782715,303.694427 
	C181.411972,309.593872 171.086533,310.481659 165.342896,307.716522 
	C157.195389,303.794098 152.735672,296.290771 154.078629,287.882721 
	C155.301117,280.228851 160.676971,272.905914 169.119278,271.899902 
	C169.733078,271.826721 170.298737,271.349487 171.309570,271.034485 
z"/>
<path fill="#D11872" opacity="1.000000" stroke="none" 
	d="
M79.680496,97.187805 
	C86.412819,104.062828 88.265076,114.463707 84.196800,121.257256 
	C79.410965,129.249039 70.191315,133.167313 61.911503,130.370178 
	C50.702751,126.583572 45.753815,116.033020 49.556614,105.031387 
	C52.915165,95.314987 65.013458,90.348686 74.732384,94.335999 
	C76.369911,95.007805 77.851791,96.058990 79.680496,97.187805 
z"/>
<path fill="#D11872" opacity="1.000000" stroke="none" 
	d="
M191.831390,49.645515 
	C193.161789,62.484207 186.080368,69.879257 178.897034,71.438118 
	C168.715027,73.647736 159.766830,71.550789 155.198914,60.301792 
	C151.336533,50.790230 156.074417,39.756573 165.555923,35.900280 
	C175.866165,31.706928 187.699432,35.747566 191.831390,49.645515 
z"/>
<path fill="#D11872" opacity="1.000000" stroke="none" 
	d="
M80.152222,247.327209 
	C71.244186,252.626007 62.683350,252.962982 54.849983,246.245071 
	C47.917240,240.299530 47.032265,228.802597 52.397892,221.117691 
	C57.884617,213.259369 69.006592,210.990158 77.750397,215.945053 
	C85.714035,220.457855 89.351463,231.279282 85.472115,239.902191 
	C84.296021,242.516342 82.128937,244.684662 80.152222,247.327209 
z"/>
<path fill="#D11872" opacity="1.000000" stroke="none" 
	d="
M295.031433,244.857193 
	C290.256409,250.990036 284.128845,253.993576 276.821136,252.766266 
	C269.577698,251.549759 263.898407,247.694214 261.579193,240.101990 
	C258.619995,230.414627 263.368591,219.216827 271.854279,216.083176 
	C282.034363,212.323822 293.201141,216.448135 296.900787,226.251144 
	C299.153748,232.220810 299.418457,238.776138 295.031433,244.857193 
z"/>
<path fill="#D11872" opacity="1.000000" stroke="none" 
	d="
M269.476440,128.795746 
	C260.511780,123.614311 258.171448,116.218796 260.238220,106.607529 
	C261.852936,99.098480 269.602295,93.211121 277.379120,93.000275 
	C286.546478,92.751732 294.352478,97.678047 296.337372,105.991020 
	C298.096954,113.360489 297.926575,120.778252 291.245605,126.238968 
	C284.695862,131.592407 277.540344,132.573761 269.476440,128.795746 
z"/>
<path fill="#D11872" opacity="1.000000" stroke="none" 
	d="
M330.778809,182.712494 
	C322.224457,189.486603 316.392975,188.972504 309.160461,184.426849 
	C305.012024,181.819519 301.073456,174.916916 303.879028,167.018188 
	C307.082764,157.998428 315.958466,153.555161 325.106689,157.112366 
	C332.377930,159.939713 337.399139,168.922913 333.640533,177.779633 
	C332.949799,179.407227 331.915619,180.889069 330.778809,182.712494 
z"/>
<path fill="#D11872" opacity="1.000000" stroke="none" 
	d="
M42.999763,174.642914 
	C42.085930,180.611832 37.593575,185.867508 32.843769,186.963318 
	C25.677402,188.616623 17.978897,186.391708 14.607582,180.946976 
	C11.262091,175.543961 10.705742,169.606613 13.816370,163.742386 
	C17.326969,157.124100 25.545025,154.816071 31.525484,156.261719 
	C39.171616,158.110001 42.996696,163.425568 42.999958,171.710861 
	C43.000282,172.541901 42.999973,173.372925 42.999763,174.642914 
z"/>
<path fill="#D11872" opacity="1.000000" stroke="none" 
	d="
M105.484451,309.977692 
	C95.299332,311.509216 88.040871,304.783539 86.428421,297.156464 
	C84.777985,289.349762 91.629311,279.773560 98.932281,279.003082 
	C105.140312,278.348114 110.983139,279.207733 114.814537,284.653381 
	C119.320236,291.057373 119.450302,298.057220 114.716660,304.257050 
	C112.719040,306.873444 108.903198,308.101593 105.484451,309.977692 
z"/>
<path fill="#D11872" opacity="1.000000" stroke="none" 
	d="
M256.040466,305.817749 
	C251.898407,312.313904 245.768127,313.989655 239.140778,312.812561 
	C233.469650,311.805328 229.249847,308.268585 227.685593,302.240356 
	C226.041214,295.903351 226.978622,290.258972 231.872635,285.641846 
	C236.878708,280.919006 243.190994,280.765015 248.925827,282.742310 
	C254.993881,284.834473 258.389282,290.322388 258.714111,296.763428 
	C258.857422,299.605408 257.044128,302.546112 256.040466,305.817749 
z"/>
<path fill="#D11872" opacity="1.000000" stroke="none" 
	d="
M254.756378,36.262527 
	C260.854309,42.774303 260.427338,53.406715 254.320129,59.093922 
	C248.145859,64.843552 237.903091,64.480484 232.124313,58.618263 
	C226.961990,53.381409 226.172928,42.750782 230.586838,37.904697 
	C237.585434,30.220839 246.618286,29.498486 254.756378,36.262527 
z"/>
<path fill="#D11872" opacity="1.000000" stroke="none" 
	d="
M115.803787,39.501175 
	C121.098190,49.359505 116.978157,60.300438 108.335098,63.279045 
	C102.826767,65.177353 95.618393,64.033279 91.409874,59.905041 
	C87.068665,55.646656 85.626999,48.069366 88.027710,42.128635 
	C90.303841,36.496189 95.476540,33.344997 101.847252,32.925690 
	C107.708496,32.539906 112.011795,34.927010 115.803787,39.501175 
z"/>
<path fill="#D11872" opacity="1.000000" stroke="none" 
	d="
M55.246590,297.999756 
	C48.450333,296.870880 44.599678,291.989838 45.001549,285.548889 
	C45.380421,279.476562 49.778316,275.108429 55.622311,275.000031 
	C63.925877,274.846008 69.182335,279.110443 68.910118,286.405670 
	C68.699707,292.044556 65.705101,298.523590 55.246590,297.999756 
z"/>
<path fill="#D11872" opacity="1.000000" stroke="none" 
	d="
M138.279755,321.679352 
	C143.876328,327.397522 144.566986,332.025787 140.992783,338.040222 
	C138.829559,341.680359 132.832748,343.937500 128.436111,342.763428 
	C122.845520,341.270477 119.470032,337.004181 119.392815,331.895569 
	C119.339745,328.384399 121.767410,323.900513 124.524231,321.509094 
	C128.323853,318.213135 133.465088,317.795624 138.279755,321.679352 
z"/>
<path fill="#D11872" opacity="1.000000" stroke="none" 
	d="
M67.371582,64.098679 
	C63.884491,69.276421 58.130695,71.424591 53.112965,69.592690 
	C47.647385,67.597282 44.417824,62.588661 45.005241,57.018696 
	C45.563313,51.727024 50.686226,46.615246 55.991753,46.056068 
	C64.727272,45.135380 70.436058,53.833141 67.371582,64.098679 
z"/>
<path fill="#D11872" opacity="1.000000" stroke="none" 
	d="
M142.822174,16.398119 
	C141.106369,21.193724 138.519363,24.539749 133.473465,24.977604 
	C128.564651,25.403563 123.797028,25.198696 121.034683,20.114685 
	C118.413811,15.291060 118.303459,10.678066 121.926353,6.131252 
	C124.547478,2.841683 130.541870,0.640453 135.199066,2.176131 
	C139.812561,3.697397 142.007126,7.507408 142.952927,12.041530 
	C143.217300,13.308911 142.967575,14.683534 142.822174,16.398119 
z"/>
<path fill="#D11872" opacity="1.000000" stroke="none" 
	d="
M284.397400,281.009583 
	C290.902527,278.809540 296.191681,280.282501 299.564667,285.092072 
	C302.051086,288.637482 301.513977,296.763855 298.141907,300.248322 
	C294.386139,304.129211 289.550171,304.333496 284.696503,302.812927 
	C280.487274,301.494263 278.722961,297.915588 278.056458,293.930450 
	C277.132385,288.405487 278.926453,283.913208 284.397400,281.009583 
z"/>
<path fill="#D11872" opacity="1.000000" stroke="none" 
	d="
M278.002197,50.439438 
	C279.875519,44.227551 284.483917,40.729744 289.871704,41.005226 
	C294.746094,41.254459 300.142151,45.823044 300.973816,50.404861 
	C302.028198,56.213650 299.202515,61.620644 293.842407,64.050842 
	C288.932770,66.276810 282.947174,65.035576 280.008514,60.197826 
	C278.447876,57.628605 278.613831,54.010578 278.002197,50.439438 
z"/>
<path fill="#FAB019" opacity="1.000000" stroke="none" 
	d="
M190.170914,162.708832 
	C189.941315,169.592468 189.790558,176.087357 189.913116,182.577087 
	C189.968414,185.504822 189.122177,186.922913 185.981888,186.748047 
	C182.860779,186.574249 179.722427,186.709976 176.225479,186.709976 
	C176.225479,163.018372 176.225479,139.813889 176.225479,116.230072 
	C180.509338,116.230072 184.748627,116.230072 189.653809,116.230072 
	C189.653809,125.496941 189.653809,134.846664 189.653809,144.196396 
	C190.023041,144.310486 190.392273,144.424576 190.761520,144.538666 
	C196.354843,137.218262 202.346603,130.160385 207.402878,122.486137 
	C210.832703,117.280464 214.694626,114.790482 220.873917,115.800125 
	C222.914139,116.133476 225.054718,115.852654 228.177505,115.852654 
	C222.953079,122.902092 218.352448,129.147507 213.711243,135.362640 
	C207.934937,143.097839 202.244003,150.902466 196.240601,158.458130 
	C194.855484,160.201370 192.350723,161.054993 190.170914,162.708832 
z"/>
<path fill="#FAAF1B" opacity="1.000000" stroke="none" 
	d="
M147.886551,209.694443 
	C147.858490,186.789001 147.858490,164.352417 147.858490,141.523499 
	C152.561554,141.523499 156.925980,141.523499 161.582794,141.523499 
	C161.582794,164.897156 161.582794,188.080627 161.582794,212.599823 
	C156.737823,211.736145 152.326218,210.949707 147.886551,209.694443 
z"/>
<path fill="#FBB217" opacity="1.000000" stroke="none" 
	d="
M120.716705,208.999969 
	C120.716461,194.904938 120.716461,181.309906 120.716461,167.434601 
	C125.441910,167.434601 129.514267,167.434601 133.935135,167.434601 
	C133.935135,190.899429 133.935135,214.108093 133.935135,237.658600 
	C129.763062,237.658600 125.683357,237.658600 120.716957,237.658600 
	C120.716957,228.292053 120.716957,218.896011 120.716705,208.999969 
z"/>
<path fill="#FAB019" opacity="1.000000" stroke="none" 
	d="
M212.786469,165.196594 
	C218.035370,172.193512 223.069534,178.905350 228.896072,186.673630 
	C223.235077,186.673630 218.816971,186.933136 214.459885,186.531174 
	C212.959244,186.392731 211.305359,184.849411 210.246719,183.527298 
	C206.102844,178.352097 202.342392,172.863327 198.086472,167.787018 
	C195.840378,165.107971 195.636169,163.114136 197.998169,160.528458 
	C199.980652,158.358231 201.613144,155.868286 203.697327,153.130066 
	C206.822418,157.278854 209.697098,161.095200 212.786469,165.196594 
z"/>
<path fill="#F8AA21" opacity="1.000000" stroke="none" 
	d="
M190.734344,210.558533 
	C182.128448,211.430725 173.631058,211.862976 164.677383,212.318436 
	C164.677383,207.736710 164.677383,203.864792 164.677383,199.545563 
	C173.058395,199.545563 181.557022,199.545563 190.842850,199.545563 
	C190.842850,202.994400 190.842850,206.556503 190.734344,210.558533 
z"/>
<path fill="#FAAE1B" opacity="1.000000" stroke="none" 
	d="
M137.283356,226.455811 
	C145.409515,225.737640 153.428024,225.372711 161.448547,225.320831 
	C162.196732,225.315979 163.490524,227.236038 163.609085,228.359634 
	C163.917557,231.283264 163.712799,234.261063 163.712799,237.611877 
	C154.845718,237.611877 146.349731,237.611877 137.176270,237.611877 
	C137.176270,234.049881 137.176270,230.472366 137.283356,226.455811 
z"/>
</svg>